<svg xmlns="http://www.w3.org/2000/svg" viewBox="0 0 100 100" width="100" height="100">
  <defs>
    <linearGradient id="bg0" x1="0%" y1="0%" x2="100%" y2="100%">
      <stop offset="0%" stop-color="#F59E0B" />
      <stop offset="100%" stop-color="#D97706" />
    </linearGradient>
  </defs>
  <rect width="100" height="100" rx="30" fill="url(#bg0)" />
  <!-- Body/Neck -->
  <path d="M30 85 C30 70, 70 70, 70 85 Z" fill="#E2E8F0" />
  <path d="M44 65 h12 v15 h-12 Z" fill="#FDBA74" />
  <!-- Face -->
  <circle cx="50" cy="50" r="20" fill="#FDBA74" />
  <!-- Hair -->
  <path d="M30 45 C30 25, 70 25, 70 45 C65 42, 35 42, 30 45 Z" fill="#451A03" />
  <!-- Eyes -->
  <circle cx="43" cy="48" r="2.5" fill="#1E293B" />
  <circle cx="57" cy="48" r="2.5" fill="#1E293B" />
  <!-- Glasses -->
  <circle cx="43" cy="48" r="6" stroke="#1E293B" stroke-width="2" fill="none" />
  <circle cx="57" cy="48" r="6" stroke="#1E293B" stroke-width="2" fill="none" />
  <line x1="49" y1="48" x2="51" y2="48" stroke="#1E293B" stroke-width="2" />
  <!-- Smile -->
  <path d="M46 58 Q50 62 54 58" stroke="#1E293B" stroke-width="2" stroke-linecap="round" fill="none" />
</svg>
