<svg xmlns="http://www.w3.org/2000/svg" viewBox="0 0 100 100" width="100" height="100">
  <defs>
    <linearGradient id="bg1" x1="0%" y1="0%" x2="100%" y2="100%">
      <stop offset="0%" stop-color="#10B981" />
      <stop offset="100%" stop-color="#047857" />
    </linearGradient>
  </defs>
  <rect width="100" height="100" rx="30" fill="url(#bg1)" />
  <!-- Back Hair -->
  <path d="M28 45 C20 60, 20 85, 32 85 H68 C80 85, 80 60, 72 45 Z" fill="#C2410C" />
  <!-- Body/Neck -->
  <path d="M30 85 C30 72, 70 72, 70 85 Z" fill="#F472B6" />
  <path d="M44 65 h12 v15 h-12 Z" fill="#FED7AA" />
  <!-- Face -->
  <circle cx="50" cy="50" r="19" fill="#FED7AA" />
  <!-- Front Hair/Franja -->
  <path d="M31 43 C33 28, 67 28, 69 43 C65 35, 35 35, 31 43 Z" fill="#C2410C" />
  <path d="M31 43 C30 50, 33 55, 35 55 C37 45, 33 43, 31 43 Z" fill="#C2410C" />
  <path d="M69 43 C70 50, 67 55, 65 55 C63 45, 67 43, 69 43 Z" fill="#C2410C" />
  <!-- Eyes -->
  <circle cx="43" cy="49" r="2.5" fill="#1E293B" />
  <circle cx="57" cy="49" r="2.5" fill="#1E293B" />
  <!-- Smile -->
  <path d="M46 58 Q50 62 54 58" stroke="#1E293B" stroke-width="2" stroke-linecap="round" fill="none" />
</svg>
