<svg xmlns="http://www.w3.org/2000/svg" viewBox="0 0 100 100" width="100" height="100">
  <defs>
    <linearGradient id="bg7" x1="0%" y1="0%" x2="100%" y2="100%">
      <stop offset="0%" stop-color="#EC4899" />
      <stop offset="100%" stop-color="#DB2777" />
    </linearGradient>
  </defs>
  <rect width="100" height="100" rx="30" fill="url(#bg7)" />
  <!-- Back Curly Hair (Circles group) -->
  <g fill="#1F2937">
    <circle cx="32" cy="40" r="11" />
    <circle cx="68" cy="40" r="11" />
    <circle cx="28" cy="50" r="11" />
    <circle cx="72" cy="50" r="11" />
    <circle cx="26" cy="62" r="11" />
    <circle cx="74" cy="62" r="11" />
    <circle cx="32" cy="30" r="11" />
    <circle cx="68" cy="30" r="11" />
    <circle cx="50" cy="26" r="11" />
  </g>
  <!-- Body/Neck -->
  <path d="M30 85 C30 72, 70 72, 70 85 Z" fill="#F59E0B" />
  <path d="M44 65 h12 v15 h-12 Z" fill="#8D5B4C" />
  <!-- Face -->
  <circle cx="50" cy="50" r="19" fill="#8D5B4C" />
  <!-- Eyes -->
  <circle cx="43" cy="49" r="2.5" fill="#FFFFFF" />
  <circle cx="57" cy="49" r="2.5" fill="#FFFFFF" />
  <circle cx="43" cy="49" r="1.2" fill="#1F2937" />
  <circle cx="57" cy="49" r="1.2" fill="#1F2937" />
  <!-- Smile -->
  <path d="M46 58 Q50 63 54 58" stroke="#FFFFFF" stroke-width="2" stroke-linecap="round" fill="none" />
</svg>
