<svg xmlns="http://www.w3.org/2000/svg" viewBox="0 0 100 100" width="100" height="100">
  <defs>
    <linearGradient id="bg9" x1="0%" y1="0%" x2="100%" y2="100%">
      <stop offset="0%" stop-color="#4F46E5" />
      <stop offset="100%" stop-color="#312E81" />
    </linearGradient>
  </defs>
  <rect width="100" height="100" rx="30" fill="url(#bg9)" />
  <!-- Back Hair -->
  <path d="M26 45 C22 60, 22 85, 30 85 H70 C78 85, 78 60, 74 45 Z" fill="#111827" />
  <!-- Body/Neck -->
  <path d="M30 85 C30 72, 70 72, 70 85 Z" fill="#F472B6" />
  <path d="M44 65 h12 v15 h-12 Z" fill="#FDBA74" />
  <!-- Face -->
  <circle cx="50" cy="50" r="19" fill="#FDBA74" />
  <!-- Hair Base (front) -->
  <path d="M31 43 C33 28, 67 28, 69 43 C63 37, 37 37, 31 43 Z" fill="#111827" />
  <!-- Eyes -->
  <circle cx="43" cy="49" r="2.5" fill="#1E293B" />
  <circle cx="57" cy="49" r="2.5" fill="#1E293B" />
  <!-- Smile -->
  <path d="M46 58 Q50 63 54 58" stroke="#1E293B" stroke-width="2" stroke-linecap="round" fill="none" />
</svg>
